<?xml version="1.0" encoding="UTF-8"?>
<svg xmlns="http://www.w3.org/2000/svg" xmlns:xlink="http://www.w3.org/1999/xlink" width="121px" height="130px" viewBox="0 0 121 130" version="1.1">
<defs>
<clipPath id="clip1">
  <path d="M 11.835938 14.738281 L 108.851562 14.738281 L 108.851562 114.78125 L 11.835938 114.78125 Z M 11.835938 14.738281 "/>
</clipPath>
</defs>
<g id="surface1">
<g clip-path="url(#clip1)" clip-rule="nonzero">
<path style=" stroke:none;fill-rule:nonzero;fill:rgb(33.72549%,54.509804%,76.862745%);fill-opacity:1;" d="M 56.273438 113.6875 L 17.769531 113.6875 C 16.527344 112.351562 15.542969 110.894531 14.820312 109.3125 C 14.074219 107.734375 13.699219 105.972656 13.699219 104.03125 C 17.09375 104.03125 19.523438 103.238281 20.992188 101.660156 C 22.464844 100.082031 23.199219 97.53125 23.199219 94.007812 L 23.199219 40.796875 C 23.199219 37.636719 22.382812 35.328125 20.753906 33.871094 C 19.105469 32.414062 16.132812 31.683594 11.835938 31.683594 L 11.835938 23.484375 C 14.433594 21.90625 17.746094 20.449219 21.773438 19.113281 C 25.777344 17.777344 29.675781 16.707031 33.476562 15.90625 C 37.253906 15.128906 40.160156 14.738281 42.195312 14.738281 C 44.570312 14.738281 46.523438 15.527344 48.0625 17.105469 C 49.578125 18.6875 50.449219 22.089844 50.675781 27.3125 C 53.503906 23.546875 57.097656 20.507812 61.460938 18.199219 C 65.804688 15.890625 70.859375 14.738281 76.625 14.738281 C 84.539062 14.738281 90.511719 16.890625 94.535156 21.1875 C 98.539062 25.515625 100.539062 32.839844 100.539062 43.164062 L 100.539062 92.914062 C 100.539062 98.867188 103.253906 102.390625 108.683594 103.484375 L 108.851562 108.765625 C 107.722656 109.980469 105.910156 111.039062 103.425781 111.9375 C 100.9375 112.863281 98.257812 113.566406 95.382812 114.050781 C 92.488281 114.539062 89.796875 114.78125 87.3125 114.78125 C 82.449219 114.78125 78.863281 113.808594 76.558594 111.867188 C 74.226562 109.921875 73.0625 106.824219 73.0625 102.570312 L 73.0625 45.71875 C 73.0625 40.734375 72.046875 37.273438 70.011719 35.328125 C 67.976562 33.386719 65.488281 32.414062 62.546875 32.414062 C 57.910156 32.414062 54.011719 34.417969 50.84375 38.429688 L 50.84375 94.007812 C 50.84375 97.53125 51.558594 100.082031 52.980469 101.660156 C 54.382812 103.238281 56.78125 104.03125 60.171875 104.03125 C 60.171875 107.675781 58.871094 110.894531 56.273438 113.6875 Z M 56.273438 113.6875 "/>
</g>
</g>
</svg>
