<?xml version="1.0" encoding="UTF-8"?>
<svg xmlns="http://www.w3.org/2000/svg" xmlns:xlink="http://www.w3.org/1999/xlink" width="261px" height="66px" viewBox="0 0 261 66" version="1.1">
<defs>
<clipPath id="clip1">
  <path d="M 0.171875 0 L 260.511719 0 L 260.511719 65.574219 L 0.171875 65.574219 Z M 0.171875 0 "/>
</clipPath>
<symbol id="logo-symbol-wordmark"></symbol>
</defs>
<g id="surface1">
<g clip-path="url(#clip1)" clip-rule="nonzero">
<path style=" stroke:none;fill-rule:nonzero;fill:rgb(0%,0%,0%);fill-opacity:1;" d="M 19.789062 52.738281 L 2.800781 52.738281 C 2.25 52.253906 1.816406 51.726562 1.496094 51.15625 C 1.167969 50.585938 1.003906 49.949219 1.003906 49.246094 C 2.5 49.246094 3.574219 48.960938 4.222656 48.390625 C 4.871094 47.820312 5.195312 46.898438 5.195312 45.625 L 5.195312 26.402344 C 5.195312 25.261719 4.835938 24.425781 4.117188 23.898438 C 3.386719 23.371094 2.074219 23.109375 0.179688 23.109375 L 0.179688 20.148438 C 1.328125 19.574219 2.789062 19.050781 4.566406 18.566406 C 6.332031 18.082031 8.054688 17.699219 9.730469 17.40625 C 11.398438 17.125 12.679688 16.984375 13.578125 16.984375 C 14.625 16.984375 15.488281 17.273438 16.167969 17.84375 C 16.835938 18.414062 17.21875 19.640625 17.320312 21.527344 C 18.566406 20.167969 20.15625 19.070312 22.082031 18.238281 C 23.996094 17.402344 26.226562 16.984375 28.773438 16.984375 C 32.265625 16.984375 34.902344 17.761719 36.675781 19.316406 C 38.445312 20.878906 39.328125 23.527344 39.328125 27.257812 L 39.328125 45.230469 C 39.328125 47.382812 40.523438 48.65625 42.921875 49.050781 L 42.996094 50.957031 C 42.496094 51.398438 41.699219 51.78125 40.601562 52.105469 C 39.503906 52.4375 38.320312 52.691406 37.050781 52.867188 C 35.773438 53.042969 34.585938 53.132812 33.488281 53.132812 C 31.34375 53.132812 29.761719 52.78125 28.742188 52.078125 C 27.714844 51.375 27.199219 50.257812 27.199219 48.71875 L 27.199219 28.179688 C 27.199219 26.378906 26.753906 25.128906 25.855469 24.425781 C 24.957031 23.722656 23.859375 23.371094 22.558594 23.371094 C 20.515625 23.371094 18.792969 24.097656 17.394531 25.546875 L 17.394531 45.625 C 17.394531 46.898438 17.710938 47.820312 18.339844 48.390625 C 18.957031 48.960938 20.015625 49.246094 21.511719 49.246094 C 21.511719 50.5625 20.9375 51.726562 19.789062 52.738281 Z M 58.640625 53.199219 C 54.898438 53.199219 51.863281 52.285156 49.539062 50.457031 C 47.222656 48.640625 46.0625 46.304688 46.0625 43.453125 C 46.0625 40.601562 47.121094 38.296875 49.238281 36.539062 C 51.363281 34.785156 54.648438 33.90625 59.089844 33.90625 C 60.535156 33.90625 62.058594 34.023438 63.65625 34.261719 C 65.25 34.507812 66.550781 34.871094 67.546875 35.355469 L 67.546875 26.597656 C 67.546875 24.753906 67.007812 23.46875 65.929688 22.742188 C 64.863281 22.019531 63.554688 21.660156 62.007812 21.660156 C 60.359375 21.660156 59.015625 22.011719 57.964844 22.714844 C 58.964844 23.019531 59.6875 23.492188 60.136719 24.125 C 60.585938 24.765625 60.808594 25.457031 60.808594 26.203125 C 60.808594 27.652344 60.222656 28.800781 59.042969 29.652344 C 57.875 30.515625 56.445312 30.945312 54.746094 30.945312 C 52.851562 30.945312 51.328125 30.449219 50.179688 29.457031 C 49.035156 28.472656 48.460938 27.234375 48.460938 25.742188 C 48.460938 24.25 49.035156 22.832031 50.179688 21.488281 C 51.328125 20.15625 53.109375 19.050781 55.527344 18.171875 C 57.949219 17.292969 61.085938 16.855469 64.925781 16.855469 C 74.957031 16.855469 79.972656 20.34375 79.972656 27.324219 L 79.972656 44.769531 C 79.972656 46.875 81.121094 48.148438 83.417969 48.589844 L 83.417969 50.695312 C 82.765625 51.53125 81.667969 52.152344 80.121094 52.566406 C 78.574219 52.988281 77.078125 53.199219 75.632812 53.199219 C 72.238281 53.199219 69.84375 52.164062 68.445312 50.101562 C 67.449219 50.894531 66.125 51.605469 64.476562 52.234375 C 62.832031 52.875 60.886719 53.199219 58.640625 53.199219 Z M 63.503906 47.863281 C 64.203125 47.863281 64.925781 47.761719 65.675781 47.5625 C 66.425781 47.367188 67.046875 47.117188 67.546875 46.8125 L 67.546875 40.425781 C 67.046875 40.117188 66.410156 39.855469 65.632812 39.632812 C 64.863281 39.414062 64.105469 39.304688 63.355469 39.304688 C 62.058594 39.304688 60.933594 39.664062 59.988281 40.386719 C 59.039062 41.113281 58.566406 42.246094 58.566406 43.78125 C 58.566406 44.96875 59.015625 45.941406 59.914062 46.707031 C 60.808594 47.476562 62.007812 47.863281 63.503906 47.863281 Z M 96.5 12.378906 C 94.363281 12.378906 92.65625 11.816406 91.378906 10.691406 C 90.113281 9.578125 89.480469 8.074219 89.480469 6.1875 C 89.480469 4.34375 90.136719 2.851562 91.457031 1.710938 C 92.78125 0.570312 94.519531 0 96.664062 0 C 98.859375 0 100.59375 0.570312 101.859375 1.710938 C 103.136719 2.851562 103.777344 4.34375 103.777344 6.1875 C 103.777344 8.074219 103.113281 9.578125 101.785156 10.691406 C 100.46875 11.816406 98.707031 12.378906 96.5 12.378906 Z M 90.902344 65.574219 C 88.605469 65.574219 86.917969 65.191406 85.839844 64.429688 C 84.773438 63.65625 84.238281 62.855469 84.238281 62.019531 C 84.238281 61.710938 84.3125 61.359375 84.464844 60.964844 C 84.613281 60.570312 84.761719 60.285156 84.914062 60.109375 C 86.859375 60.109375 88.382812 59.59375 89.480469 58.554688 C 90.578125 57.53125 91.125 55.65625 91.125 52.933594 L 91.125 26.269531 C 91.125 25.261719 90.8125 24.46875 90.183594 23.898438 C 89.5625 23.328125 88.230469 23.042969 86.1875 23.042969 L 86.1875 20.082031 C 87.433594 19.511719 88.90625 18.992188 90.601562 18.527344 C 92.296875 18.070312 93.96875 17.699219 95.617188 17.40625 C 97.265625 17.125 98.613281 16.984375 99.660156 16.984375 C 100.855469 16.984375 101.691406 17.207031 102.160156 17.644531 C 102.628906 18.082031 102.863281 18.851562 102.863281 19.949219 L 102.863281 53.394531 C 102.863281 56.160156 102.320312 58.441406 101.230469 60.242188 C 100.132812 62.042969 98.679688 63.378906 96.875 64.257812 C 95.089844 65.136719 93.097656 65.574219 90.902344 65.574219 Z M 164.242188 53.132812 C 162.398438 53.132812 160.816406 52.898438 159.496094 52.433594 C 158.167969 51.976562 157.507812 51.070312 157.507812 49.707031 L 157.507812 27.785156 C 157.507812 26.378906 157.070312 25.289062 156.203125 24.519531 C 155.324219 23.753906 154.164062 23.371094 152.714844 23.371094 C 151.917969 23.371094 151.109375 23.503906 150.289062 23.769531 C 149.460938 24.03125 148.722656 24.425781 148.074219 24.953125 C 148.125 25.128906 148.148438 25.289062 148.148438 25.441406 C 148.148438 25.597656 148.148438 25.765625 148.148438 25.941406 L 148.148438 45.625 C 148.148438 46.898438 148.449219 47.808594 149.046875 48.351562 C 149.648438 48.90625 150.59375 49.179688 151.890625 49.179688 C 151.890625 49.882812 151.734375 50.527344 151.414062 51.117188 C 151.082031 51.714844 150.644531 52.253906 150.09375 52.738281 L 134.152344 52.738281 C 133.652344 52.253906 133.242188 51.714844 132.925781 51.117188 C 132.59375 50.527344 132.429688 49.882812 132.429688 49.179688 C 133.726562 49.179688 134.640625 48.90625 135.167969 48.351562 C 135.6875 47.808594 135.949219 46.898438 135.949219 45.625 L 135.949219 27.785156 C 135.949219 26.378906 135.488281 25.289062 134.570312 24.519531 C 133.644531 23.753906 132.53125 23.371094 131.234375 23.371094 C 130.285156 23.371094 129.3125 23.570312 128.3125 23.964844 C 127.316406 24.359375 126.46875 24.929688 125.769531 25.675781 L 125.769531 45.625 C 125.769531 46.898438 126.03125 47.808594 126.5625 48.351562 C 127.082031 48.90625 127.964844 49.179688 129.210938 49.179688 C 129.210938 50.542969 128.613281 51.726562 127.414062 52.738281 L 111.171875 52.738281 C 110.621094 52.253906 110.1875 51.714844 109.871094 51.117188 C 109.539062 50.527344 109.375 49.882812 109.375 49.179688 C 110.871094 49.179688 111.945312 48.90625 112.59375 48.351562 C 113.242188 47.808594 113.566406 46.898438 113.566406 45.625 L 113.566406 26.335938 C 113.566406 25.195312 113.207031 24.359375 112.488281 23.832031 C 111.761719 23.308594 110.449219 23.042969 108.550781 23.042969 L 108.550781 20.148438 C 109.699219 19.53125 111.160156 18.984375 112.9375 18.5 C 114.703125 18.019531 116.425781 17.632812 118.101562 17.339844 C 119.769531 17.0625 121.050781 16.921875 121.949219 16.921875 C 122.949219 16.921875 123.789062 17.191406 124.464844 17.738281 C 125.132812 18.289062 125.570312 19.421875 125.769531 21.132812 C 127.066406 19.859375 128.703125 18.839844 130.679688 18.066406 C 132.644531 17.300781 134.875 16.921875 137.371094 16.921875 C 142.359375 16.921875 145.605469 18.390625 147.101562 21.332031 C 148.398438 19.925781 150.085938 18.839844 152.160156 18.066406 C 154.226562 17.300781 156.53125 16.921875 159.078125 16.921875 C 162.671875 16.921875 165.355469 17.6875 167.132812 19.226562 C 168.898438 20.761719 169.78125 23 169.78125 25.941406 L 169.78125 45.625 C 169.78125 46.636719 170.105469 47.402344 170.753906 47.929688 C 171.402344 48.457031 172.300781 48.828125 173.449219 49.050781 L 173.449219 50.957031 C 172.550781 51.660156 171.378906 52.195312 169.933594 52.566406 C 168.484375 52.941406 166.589844 53.132812 164.242188 53.132812 Z M 195.15625 53.59375 C 191.613281 53.59375 188.46875 52.921875 185.726562 51.578125 C 182.980469 50.242188 180.851562 48.269531 179.332031 45.652344 C 177.804688 43.046875 177.042969 39.808594 177.042969 35.949219 C 177.042969 31.820312 177.839844 28.355469 179.4375 25.546875 C 181.035156 22.734375 183.253906 20.605469 186.101562 19.160156 C 188.945312 17.710938 192.214844 16.984375 195.90625 16.984375 C 199.5 16.984375 202.65625 17.667969 205.382812 19.027344 C 208.097656 20.386719 210.21875 22.394531 211.746094 25.042969 C 213.261719 27.703125 214.019531 30.988281 214.019531 34.894531 C 214.019531 38.976562 213.222656 42.410156 211.625 45.191406 C 210.027344 47.984375 207.808594 50.082031 204.964844 51.484375 C 202.117188 52.890625 198.851562 53.59375 195.15625 53.59375 Z M 195.757812 48.851562 C 196.804688 48.851562 197.71875 48.523438 198.496094 47.863281 C 199.265625 47.207031 199.863281 45.984375 200.292969 44.203125 C 200.710938 42.429688 200.921875 39.855469 200.921875 36.472656 C 200.921875 32.347656 200.695312 29.21875 200.246094 27.085938 C 199.796875 24.960938 199.148438 23.527344 198.300781 22.78125 C 197.453125 22.035156 196.453125 21.660156 195.308594 21.660156 C 194.257812 21.660156 193.335938 21.988281 192.539062 22.648438 C 191.738281 23.308594 191.128906 24.535156 190.710938 26.335938 C 190.28125 28.136719 190.066406 30.746094 190.066406 34.171875 C 190.066406 38.253906 190.308594 41.347656 190.785156 43.453125 C 191.253906 45.558594 191.914062 46.988281 192.761719 47.734375 C 193.609375 48.480469 194.609375 48.851562 195.757812 48.851562 Z M 237.300781 52.738281 L 220.308594 52.738281 C 219.757812 52.253906 219.320312 51.726562 218.992188 51.15625 C 218.671875 50.585938 218.511719 49.949219 218.511719 49.246094 C 220.007812 49.246094 221.082031 48.960938 221.730469 48.390625 C 222.378906 47.820312 222.703125 46.898438 222.703125 45.625 L 222.703125 26.402344 C 222.703125 25.261719 222.339844 24.425781 221.609375 23.898438 C 220.890625 23.371094 219.585938 23.109375 217.6875 23.109375 L 217.6875 20.148438 C 218.835938 19.574219 220.292969 19.050781 222.058594 18.566406 C 223.835938 18.082031 225.558594 17.699219 227.226562 17.40625 C 228.902344 17.125 230.1875 16.984375 231.085938 16.984375 C 232.136719 16.984375 232.992188 17.273438 233.664062 17.84375 C 234.339844 18.414062 234.730469 19.640625 234.828125 21.527344 C 236.078125 20.167969 237.660156 19.070312 239.574219 18.238281 C 241.5 17.402344 243.738281 16.984375 246.28125 16.984375 C 249.777344 16.984375 252.40625 17.761719 254.171875 19.316406 C 255.949219 20.878906 256.835938 23.527344 256.835938 27.257812 L 256.835938 45.230469 C 256.835938 47.382812 258.035156 48.65625 260.429688 49.050781 L 260.503906 50.957031 C 260.003906 51.398438 259.207031 51.78125 258.109375 52.105469 C 257.011719 52.4375 255.824219 52.691406 254.546875 52.867188 C 253.277344 53.042969 252.097656 53.132812 251 53.132812 C 248.851562 53.132812 247.265625 52.78125 246.238281 52.078125 C 245.21875 51.375 244.710938 50.257812 244.710938 48.71875 L 244.710938 28.179688 C 244.710938 26.378906 244.261719 25.128906 243.363281 24.425781 C 242.464844 23.722656 241.367188 23.371094 240.070312 23.371094 C 238.023438 23.371094 236.300781 24.097656 234.90625 25.546875 L 234.90625 45.625 C 234.90625 46.898438 235.214844 47.820312 235.832031 48.390625 C 236.460938 48.960938 237.523438 49.246094 239.023438 49.246094 C 239.023438 50.5625 238.449219 51.726562 237.300781 52.738281 Z M 237.300781 52.738281 "/>
</g>
</g> 
</svg>
