<?xml version="1.0" encoding="UTF-8"?>
<svg xmlns="http://www.w3.org/2000/svg" xmlns:xlink="http://www.w3.org/1999/xlink" width="61px" height="65px" viewBox="0 0 61 65" version="1.1">
<defs>
<clipPath id="clip1">
  <path d="M 5.964844 7.371094 L 54.875 7.371094 L 54.875 57.390625 L 5.964844 57.390625 Z M 5.964844 7.371094 "/>
</clipPath>
</defs>
<g id="surface1">
<g clip-path="url(#clip1)" clip-rule="nonzero">
<path style=" stroke:none;fill-rule:nonzero;fill:rgb(33.72549%,54.509804%,76.862745%);fill-opacity:1;" d="M 28.367188 56.84375 L 8.957031 56.84375 C 8.332031 56.175781 7.835938 55.445312 7.472656 54.65625 C 7.09375 53.867188 6.90625 52.988281 6.90625 52.015625 C 8.617188 52.015625 9.84375 51.621094 10.582031 50.832031 C 11.324219 50.039062 11.695312 48.765625 11.695312 47.003906 L 11.695312 20.398438 C 11.695312 18.820312 11.285156 17.664062 10.464844 16.9375 C 9.632812 16.207031 8.132812 15.84375 5.964844 15.84375 L 5.964844 11.742188 C 7.277344 10.953125 8.949219 10.222656 10.976562 9.554688 C 12.996094 8.886719 14.960938 8.351562 16.875 7.953125 C 18.78125 7.5625 20.246094 7.371094 21.273438 7.371094 C 22.46875 7.371094 23.453125 7.765625 24.230469 8.554688 C 24.992188 9.34375 25.433594 11.042969 25.546875 13.65625 C 26.972656 11.773438 28.785156 10.253906 30.984375 9.101562 C 33.175781 7.945312 35.722656 7.371094 38.628906 7.371094 C 42.621094 7.371094 45.628906 8.445312 47.660156 10.59375 C 49.675781 12.757812 50.6875 16.417969 50.6875 21.582031 L 50.6875 46.457031 C 50.6875 49.433594 52.054688 51.195312 54.789062 51.742188 L 54.875 54.382812 C 54.304688 54.992188 53.394531 55.519531 52.140625 55.96875 C 50.886719 56.429688 49.535156 56.78125 48.085938 57.027344 C 46.628906 57.269531 45.269531 57.390625 44.015625 57.390625 C 41.566406 57.390625 39.757812 56.90625 38.59375 55.933594 C 37.421875 54.960938 36.832031 53.410156 36.832031 51.285156 L 36.832031 22.859375 C 36.832031 20.367188 36.320312 18.636719 35.292969 17.664062 C 34.269531 16.691406 33.015625 16.207031 31.53125 16.207031 C 29.195312 16.207031 27.230469 17.210938 25.632812 19.214844 L 25.632812 47.003906 C 25.632812 48.765625 25.992188 50.039062 26.710938 50.832031 C 27.417969 51.621094 28.625 52.015625 30.335938 52.015625 C 30.335938 53.835938 29.679688 55.445312 28.367188 56.84375 Z M 28.367188 56.84375 "/>
</g>
</g>
</svg>
