<?xml version="1.0" encoding="UTF-8"?>
<svg xmlns="http://www.w3.org/2000/svg" xmlns:xlink="http://www.w3.org/1999/xlink" width="79px" height="79px" viewBox="0 0 79 79" version="1.1">
<defs>
<clipPath id="clip1">
  <path d="M 7.726562 8.957031 L 71.070312 8.957031 L 71.070312 69.753906 L 7.726562 69.753906 Z M 7.726562 8.957031 "/>
</clipPath>
</defs>
<g id="surface1">
<g clip-path="url(#clip1)" clip-rule="nonzero">
<path style=" stroke:none;fill-rule:nonzero;fill:rgb(0%,0%,0%);fill-opacity:1;" d="M 36.738281 69.085938 L 11.601562 69.085938 C 10.789062 68.273438 10.148438 67.390625 9.675781 66.429688 C 9.1875 65.46875 8.945312 64.398438 8.945312 63.21875 C 11.160156 63.21875 12.746094 62.738281 13.707031 61.777344 C 14.667969 60.820312 15.144531 59.269531 15.144531 57.128906 L 15.144531 24.792969 C 15.144531 22.871094 14.613281 21.46875 13.550781 20.582031 C 12.472656 19.699219 10.53125 19.253906 7.726562 19.253906 L 7.726562 14.273438 C 9.425781 13.3125 11.585938 12.425781 14.214844 11.613281 C 16.828125 10.800781 19.375 10.152344 21.855469 9.664062 C 24.324219 9.191406 26.21875 8.957031 27.546875 8.957031 C 29.097656 8.957031 30.375 9.4375 31.378906 10.394531 C 32.371094 11.355469 32.9375 13.421875 33.085938 16.597656 C 34.929688 14.308594 37.277344 12.464844 40.128906 11.058594 C 42.964844 9.65625 46.261719 8.957031 50.027344 8.957031 C 55.195312 8.957031 59.09375 10.261719 61.722656 12.875 C 64.335938 15.503906 65.640625 19.957031 65.640625 26.230469 L 65.640625 56.464844 C 65.640625 60.082031 67.414062 62.222656 70.957031 62.886719 L 71.070312 66.097656 C 70.332031 66.835938 69.148438 67.476562 67.523438 68.023438 C 65.902344 68.585938 64.152344 69.011719 62.277344 69.308594 C 60.386719 69.605469 58.628906 69.75 57.003906 69.75 C 53.832031 69.75 51.488281 69.160156 49.984375 67.980469 C 48.464844 66.796875 47.703125 64.914062 47.703125 62.332031 L 47.703125 27.78125 C 47.703125 24.753906 47.039062 22.652344 45.710938 21.46875 C 44.378906 20.289062 42.757812 19.699219 40.835938 19.699219 C 37.808594 19.699219 35.261719 20.917969 33.195312 23.351562 L 33.195312 57.128906 C 33.195312 59.269531 33.660156 60.820312 34.589844 61.777344 C 35.507812 62.738281 37.070312 63.21875 39.285156 63.21875 C 39.285156 65.433594 38.4375 67.390625 36.738281 69.085938 Z M 36.738281 69.085938 "/>
</g>
</g>
</svg>
